<?xml version="1.0" encoding="utf-8"?>
<!-- Generator: Adobe Illustrator 17.0.2, SVG Export Plug-In . SVG Version: 6.00 Build 0)  -->
<!DOCTYPE svg PUBLIC "-//W3C//DTD SVG 1.1//EN" "http://www.w3.org/Graphics/SVG/1.1/DTD/svg11.dtd">
<svg version="1.1" id="Layer_1" xmlns="http://www.w3.org/2000/svg" xmlns:xlink="http://www.w3.org/1999/xlink" x="0px" y="0px"
	 width="459.754px" height="351.196px" viewBox="0 0 459.754 351.196" enable-background="new 0 0 459.754 351.196"
	 xml:space="preserve" preserveAspectRatio="none">
<g>
	<path fill="#81B3D2" d="M162.466,0h7.708l-1.21,44.918h-14.525l-1.975-18.545l-1.975,18.545H135.9L134.754,0h7.645l0.637,37.152
		h0.828L148.642,0h7.581l4.905,37.152h0.765L162.466,0z"/>
	<path fill="#81B3D2" d="M194.317,37.152v7.766h-20.896V0h20.896v7.7h-13.251v10.844h10.575v7.7h-10.575v10.908H194.317z"/>
	<path fill="#81B3D2" d="M215.656,37.152v7.766h-18.283V0h7.645v37.152H215.656z"/>
	<path fill="#81B3D2" d="M231.9,28.362l7.708-1.797v13.604c0,2.567-2.166,4.749-4.714,4.749h-11.468
		c-2.612,0-4.714-2.182-4.714-4.749V4.749c0-2.632,2.103-4.749,4.714-4.749h11.467c2.548,0,4.714,2.117,4.714,4.749v9.112
		l-7.708,1.796V7.7h-5.543v29.452h5.543v-8.79H231.9z"/>
	<path fill="#81B3D2" d="M260.373,0c2.548,0,4.714,2.117,4.714,4.749v35.42c0,2.567-2.166,4.749-4.714,4.749h-11.468
		c-2.611,0-4.714-2.182-4.714-4.749V4.749c0-2.631,2.103-4.749,4.714-4.749H260.373z M257.379,7.7h-5.543v29.452h5.543V7.7z"/>
	<path fill="#81B3D2" d="M290.12,0h7.581v44.918h-7.645V22.844l-3.058,11.422h-7.454l-2.994-11.422v22.074h-7.645V0h7.581
		l6.816,21.688L290.12,0z"/>
	<path fill="#81B3D2" d="M322.417,37.152v7.766h-20.896V0h20.896v7.7h-13.251v10.844h10.575v7.7h-10.575v10.908H322.417z"/>
</g>
<g>
	<path fill="#766357" d="M164.753,71.454l-0.202,0.23c-1.353,1.468-3.023,2.188-4.521,2.217l2.822-4.866
		c1.814-3.138,0.144-6.104-2.678-6.104c-2.304,0-4.089,0.921-5.816,3.916l-1.468,2.562l-1.227,2.098l-0.154,0.177
		c-2.159,2.505-4.261,4.491-5.586,4.491c-0.662,0-1.037-0.461-0.345-1.641l6.421-11.201h2.447l0.864-1.44h-2.476L155.656,57h-2.995
		l-2.822,4.895h-2.707l-0.864,1.44h2.735l-6.018,10.423c-1.267,2.217-0.374,4.262,2.044,4.262c1.739,0,3.662-1.309,5.511-3.084
		c-0.005,3.816,5.298,4.561,8.539,0.463h0.662c1.785,0,4.607-1.094,6.133-2.908C165.674,72.087,165.156,71.627,164.753,71.454z
		 M158.361,71.656h-0.144c-0.979,0-1.756,0.806-1.756,1.786c0,0.373,0.115,0.719,0.288,1.008l-0.029,0.057
		c-1.411,2.419-4.837,1.958-3.052-1.151l2.274-3.945l1.44-2.447c2.102-3.57,4.981-2.16,3.167,0.95L158.361,71.656z"/>
	<path fill="#766357" d="M206.209,71.454l-0.202,0.23c-2.16,2.505-4.924,4.491-7.025,4.491c-1.843,0-2.937-1.151-1.555-3.57
		l0.288-0.519c1.929,0.806,5.557,0.432,7.803-3.455l0.432-0.749c1.612-2.764,0.058-4.837-2.39-4.837
		c-2.419,0-4.348,1.267-5.615,3.455l-2.906,4.985l-0.173,0.198c-2.16,2.505-4.261,4.491-5.586,4.491
		c-0.662,0-1.037-0.461-0.346-1.641l4.32-7.571c1.295-2.275,0.058-3.916-1.613-3.916c-1.295,0-2.678,0.72-4.175,2.274l4.78-8.32
		h-2.995l-8.354,14.492l-0.168,0.192c-2.159,2.505-4.261,4.491-5.586,4.491c-0.662,0-1.037-0.461-0.345-1.641l6.421-11.201h2.447
		l0.864-1.44h-2.476L184.877,57h-2.995l-2.822,4.895h-2.706l-0.864,1.44h2.735l-6.018,10.423c-1.267,2.217-0.374,4.262,2.044,4.262
		c1.213,0,2.517-0.639,3.822-1.627l-0.771,1.338h3.023l4.549-7.917c4.607-5.788,6.651-5.039,5.355-2.822l-3.887,6.767
		c-1.267,2.217-0.374,4.262,2.044,4.262c1.782,0,3.757-1.375,5.647-3.217c0.144,1.865,1.653,3.217,4.054,3.217
		c3.397,0,6.766-2.649,9.243-5.529C207.13,72.087,206.612,71.627,206.209,71.454z M200.508,67.25
		c1.728-2.965,4.78-2.476,2.995,0.634l-0.432,0.749c-1.439,2.447-3.369,2.39-4.492,1.987L200.508,67.25z"/>
	<path fill="#766357" d="M315.378,71.454l-0.201,0.23c-1.095,1.295-2.419,2.447-3.6,3.253c0.95-2.85,0.749-7.227,2.592-11.056
		l-2.246-1.209c-1.238,1.699-3.944,5.615-6.651,8.782l0.001,0.001l-0.201,0.229c-2.159,2.505-4.261,4.491-5.586,4.491
		c-0.662,0-1.036-0.461-0.345-1.641l6.392-11.201h-2.994l-5.327,9.3c-2.274,2.072-4.031,3.225-4.606,2.965
		c-0.749-0.316,0-1.439,0.374-2.072l5.845-10.193h-2.994l-4.694,8.124l-0.198,0.227c-1.354,1.468-3.023,2.188-4.521,2.217
		l2.821-4.866c1.814-3.138,0.145-6.104-2.678-6.104c-2.303,0-4.088,0.921-5.815,3.916l-1.469,2.562l-1.226,2.097l-0.155,0.178
		c-2.159,2.505-4.924,4.491-7.025,4.491c-1.843,0-2.938-1.151-1.555-3.57l0.288-0.519c1.929,0.806,5.557,0.432,7.803-3.455
		l0.432-0.749c1.612-2.764,0.058-4.837-2.39-4.837c-2.419,0-4.348,1.267-5.615,3.455l-2.904,4.984l-0.175,0.199
		c-2.476,2.851-4.606,4.692-6.968,5.7l6.709-11.459h-1.757c0-1.238-1.267-2.879-3.138-2.879c-1.612,0-3.858,1.267-5.126,3.455
		l-2.871,4.957c-0.002-0.001-0.005-0.003-0.007-0.004l-0.201,0.23c-2.159,2.505-4.262,4.491-5.586,4.491
		c-0.662,0-1.036-0.461-0.346-1.641l2.995-5.241c1.036-1.814,0.547-2.879-0.433-4.06l-1.67-2.016
		c-0.432-0.547-0.432-1.152,0.173-1.728l-1.555-1.699c-1.699,1.526-1.843,3.225-0.777,4.607l0.259,0.346
		c-1.324,1.872-3.109,4.405-5.067,6.709l0.001,0.001l-0.2,0.229c-1.354,1.468-3.023,2.188-4.521,2.217l2.821-4.866
		c1.814-3.138,0.145-6.104-2.678-6.104c-2.303,0-4.088,0.921-5.815,3.916l-1.469,2.562l-1.228,2.101l-0.152,0.174
		c-2.477,2.851-4.607,4.692-6.968,5.7l6.709-11.459h-1.756c0-1.238-1.267-2.879-3.139-2.879c-1.612,0-3.858,1.267-5.125,3.455
		l-4.204,7.256c-1.267,2.217-0.374,4.262,2.044,4.262c0.835,0,1.843-0.375,2.851-1.008l-0.835,1.41
		c-4.031,1.238-6.565,2.879-6.565,5.125c0,2.88,4.405,3.484,6.565-0.201L220,79.397c2.396-0.747,4.743-2.156,7.18-4.482
		c-0.022,3.832,5.293,4.585,8.539,0.48h0.662c1.785,0,4.607-1.094,6.133-2.908l-0.001-0.001c1.439-1.67,2.562-3.167,4.951-6.419
		l0.403,0.489c0.374,0.49,0.519,1.094,0.173,1.699l-3.167,5.5c-1.268,2.217-0.375,4.262,2.044,4.262c1.518,0,3.176-0.997,4.802-2.43
		c-0.049,1.391,0.879,2.43,2.597,2.43c0.835,0,1.843-0.375,2.851-1.008l-0.835,1.41c-4.031,1.238-6.564,2.879-6.564,5.125
		c0,2.88,4.405,3.484,6.564-0.201l2.274-3.945c2.44-0.761,4.83-2.214,7.315-4.617c0.134,1.875,1.647,3.236,4.057,3.236
		c2.438,0,4.859-1.367,6.948-3.201c-0.118,3.92,5.266,4.721,8.541,0.58h0.662c0.938,0,2.158-0.308,3.329-0.856
		c-0.805,2.081-0.063,3.478,1.65,3.478c1.641,0,3.483-1.498,4.923-2.88c-0.288,1.612,0.662,2.88,2.562,2.88
		c2.477,0,5.327-2.649,7.804-5.529l-0.001-0.001c1.698-1.958,3.195-4.059,4.261-5.469c-1.181,3.109-0.548,8.695-3.398,8.695
		c-1.008,0-1.41-1.094-1.41-1.094l-1.872,0.979c0,0,0.547,2.42,3.282,2.42c0.288,0,0.548-0.029,0.835-0.059
		c0.029,0,0.058-0.028,0.087-0.028c3.052-0.403,6.075-2.821,8.321-5.442C316.328,72.03,315.809,71.569,315.378,71.454z
		 M272.395,67.25c1.728-2.965,4.779-2.476,2.994,0.634l-0.432,0.749c-1.44,2.447-3.369,2.39-4.492,1.987L272.395,67.25z
		 M215.219,82.855c-0.634,1.123-1.641,0.951-1.641,0.145c0-0.777,0.72-1.67,2.994-2.562L215.219,82.855z M216.601,76.176
		c-0.662,0-1.037-0.461-0.345-1.641l4.175-7.285c1.612-2.793,4.809-2.073,3.34,0.634l-2.274,3.973
		C219.682,74.766,217.868,76.176,216.601,76.176z M234.998,71.656h-0.145c-0.979,0-1.756,0.806-1.756,1.786
		c0,0.373,0.115,0.719,0.288,1.008l-0.029,0.057c-1.41,2.419-4.837,1.958-3.052-1.151l2.274-3.945l1.439-2.447
		c2.103-3.57,4.981-2.16,3.168,0.95L234.998,71.656z M253.825,82.855c-0.634,1.123-1.642,0.951-1.642,0.145
		c0-0.777,0.72-1.67,2.995-2.562L253.825,82.855z M255.207,76.176c-0.662,0-1.036-0.461-0.346-1.641l4.176-7.285
		c1.612-2.793,4.808-2.073,3.34,0.634l-2.275,3.973C258.288,74.766,256.473,76.176,255.207,76.176z M284.746,71.656h-0.145
		c-0.979,0-1.756,0.806-1.756,1.786c0,0.373,0.115,0.719,0.288,1.008l-0.029,0.057c-1.41,2.419-4.837,1.958-3.052-1.151l2.274-3.945
		l1.439-2.447c2.103-3.57,4.981-2.16,3.168,0.95L284.746,71.656z"/>
</g>
<rect x="100.754" y="68.275" fill="#766357" width="28.917" height="1.958"/>
<rect x="327.754" y="68.275" fill="#766357" width="28.918" height="1.958"/>
<g>
	<path fill="#FFFFFF" d="M44.467,158.737c-3.573-2.978-8.139-4.963-12.903-4.963c-3.573,0-8.338,2.084-8.338,6.253
		c0,4.368,5.261,6.055,8.636,7.146l4.963,1.489c10.422,3.077,18.462,8.337,18.462,20.447c0,7.445-1.787,15.088-7.742,20.15
		c-5.856,4.963-13.698,7.047-21.241,7.047c-9.43,0-18.661-3.176-26.304-8.537l8.338-15.682c4.864,4.268,10.621,7.742,17.271,7.742
		c4.566,0,9.43-2.283,9.43-7.544c0-5.46-7.643-7.345-11.812-8.536c-12.208-3.475-20.249-6.65-20.249-21.143
		c0-15.187,10.819-25.112,25.807-25.112c7.543,0,16.775,2.382,23.425,6.154L44.467,158.737z"/>
	<path fill="#FFFFFF" d="M91.832,155.958v12.506h21.936v16.478H91.832v12.902h23.127v16.478H72.377v-74.841h42.582v16.477H91.832z"
		/>
	<path fill="#FFFFFF" d="M129.417,139.481h27.594c20.844,0,38.016,16.377,38.016,37.42c0,21.042-17.271,37.42-38.016,37.42h-27.594
		V139.481z M148.872,197.845h4.367c11.613,0,21.54-6.352,21.54-20.943c0-13.4-8.834-20.943-21.341-20.943h-4.566V197.845z"/>
	<path fill="#FFFFFF" d="M286.872,175.512c0,24.219-17.37,41.292-41.391,41.292s-41.391-17.072-41.391-41.292
		c0-22.631,19.852-38.512,41.391-38.512S286.872,152.881,286.872,175.512z M224.339,175.611c0,12.903,9.529,22.333,21.142,22.333
		c11.613,0,21.142-9.43,21.142-22.333c0-10.323-9.528-19.752-21.142-19.752C233.867,155.859,224.339,165.289,224.339,175.611z"/>
	<path fill="#FFFFFF" d="M297.238,139.481h19.455l35.634,45.758h0.198v-45.758h19.454v74.841h-19.454l-35.634-45.857h-0.198v45.857
		h-19.455V139.481z"/>
	<path fill="#FFFFFF" d="M407.346,201.319l-5.161,13.003h-20.646l28.785-74.841h21.241l28.189,74.841h-20.745l-4.863-13.003H407.346
		z M420.944,162.608h-0.199l-8.039,23.822h16.179L420.944,162.608z"/>
</g>
<g>
	<path fill="#FFFFFF" d="M107.173,288.864c7.658-2.589,8.242-12.181,0.693-12.181c-2.079,0-4.559,1.459-6.272,4.449l-10.212,17.651
		c-0.474,0.839-0.948,1.532-1.458,2.151c-2.626-3.61-1.86-9.007,1.823-11.378l-1.532-1.933c-7.95,5.069-5.616,19.693,7.659,19.693
		C109.216,307.317,114.467,293.714,107.173,288.864z M97.801,304.399c-2.261,0-4.048-0.511-5.47-1.313
		c0.657-0.766,1.313-1.714,1.896-2.699l6.382-11.05l1.021,0.109C110.528,291.307,106.991,304.399,97.801,304.399z M101.885,287.113
		l3.063-5.251c2.771-4.777,6.309-1.969,4.413,1.604C107.903,286.201,105.751,287.04,101.885,287.113z"/>
	<path fill="#FFFFFF" d="M139.253,301.125c-0.629,2.248,0.573,4.076,3.146,4.076c1.532,0,3.428-0.985,5.251-2.48
		c0.183,1.459,1.35,2.48,3.282,2.48c2.02,0,4.235-1.395,6.394-3.358c-0.42,2.048,0.541,3.358,2.41,3.358
		c2.079,0,4.413-1.896,6.236-3.647c-0.365,2.042,0.839,3.647,3.246,3.647c3.136,0,6.747-3.355,9.883-7.002
		c-0.025-0.05-0.069-0.102-0.101-0.152c2.097-2.437,3.946-5.026,5.268-6.777c-1.496,3.939-0.693,11.014-4.304,11.014
		c-1.276,0-1.787-1.386-1.787-1.386l-2.371,1.24c0,0,0.693,3.063,4.157,3.063c0.365,0,0.693-0.037,1.058-0.073
		c0.037,0,0.073-0.036,0.109-0.036c2.786-0.368,5.55-2.064,7.943-4.224c0.058,2.495,1.995,4.333,5.145,4.333
		c4.303,0,8.57-3.355,11.707-7.002c-0.255-0.511-0.912-1.094-1.422-1.313l-0.255,0.292c-2.735,3.172-6.236,5.689-8.898,5.689
		c-2.334,0-3.72-1.459-1.969-4.522l0.365-0.657c2.443,1.021,7.039,0.547,9.883-4.376l0.547-0.948
		c2.042-3.501,0.073-6.127-3.027-6.127c-3.063,0-5.507,1.605-7.111,4.376l-3.683,6.318c-0.035-0.012-0.071-0.037-0.105-0.046
		l-0.255,0.292c-1.386,1.641-3.063,3.1-4.558,4.121c1.203-3.61,0.948-9.153,3.282-14.004l-2.844-1.532
		c-1.568,2.152-4.996,7.112-8.424,11.123c0.032,0.046,0.074,0.091,0.11,0.138l-0.135,0.154c-2.735,3.172-5.397,5.689-7.075,5.689
		c-0.838,0-1.312-0.583-0.438-2.079l8.096-14.187h-3.793l-6.747,11.779c-2.881,2.626-5.105,4.084-5.835,3.756
		c-0.948-0.401,0-1.823,0.474-2.625l7.403-12.91h-3.793l-6.036,10.446c-0.098-0.06-0.196-0.123-0.288-0.162l-0.255,0.292
		c-2.735,3.172-5.397,5.689-7.075,5.689c-0.838,0-1.312-0.583-0.438-2.079l6.127-10.722h-2.152c0.146-1.605-1.495-3.83-3.975-3.83
		c-2.042,0-4.887,1.605-6.491,4.376l-3.846,6.637c-0.195-0.152-0.394-0.286-0.577-0.365l-0.255,0.292
		c-2.735,3.172-6.236,5.689-8.898,5.689c-2.334,0-3.72-1.459-1.97-4.522l3.902-6.783c2.188-3.756,6.054-3.136,3.792,0.802
		l-0.547,0.948h3.1l0.547-0.948c2.042-3.501,0.073-6.127-3.027-6.127c-3.063,0-5.507,1.605-7.111,4.376l-3.77,6.467
		c-0.118-0.077-0.236-0.147-0.347-0.195l-0.255,0.292c-2.735,3.172-6.236,5.689-8.898,5.689c-2.334,0-3.72-1.459-1.97-4.522
		l0.365-0.657c2.443,1.021,7.039,0.547,9.883-4.376l0.547-0.948c2.042-3.501,0.073-6.127-3.027-6.127
		c-3.063,0-5.507,1.605-7.111,4.376l-3.975,6.819c-2.371,4.048-0.328,7.768,4.157,7.768c3.341,0,6.657-2.024,9.442-4.635
		c-0.098,2.647,1.865,4.635,5.141,4.635C133.524,305.201,136.601,303.46,139.253,301.125z M197.282,291.562
		c2.188-3.756,6.054-3.136,3.792,0.802l-0.547,0.948c-1.823,3.1-4.267,3.027-5.689,2.516L197.282,291.562z M143.091,300.789
		l5.288-9.227c2.042-3.538,6.09-2.626,4.23,0.802l-2.954,5.179c-2.297,3.61-4.559,5.324-6.126,5.324
		C142.69,302.867,142.216,302.284,143.091,300.789z M118.907,291.562c2.188-3.756,6.054-3.136,3.792,0.802l-0.547,0.948
		c-1.823,3.1-4.267,3.027-5.689,2.516L118.907,291.562z"/>
	<path fill="#FFFFFF" d="M247.491,305.201c4.304,0,8.57-3.355,11.706-7.002c-0.255-0.511-0.911-1.094-1.422-1.313l-0.255,0.292
		c-2.735,3.172-6.236,5.689-8.898,5.689c-2.334,0-3.72-1.459-1.97-4.522l0.365-0.657c2.443,1.021,7.038,0.547,9.883-4.376
		l0.547-0.948c2.042-3.501,0.073-6.127-3.027-6.127c-3.062,0-5.506,1.605-7.111,4.376l-3.693,6.336
		c-0.037-0.019-0.077-0.048-0.113-0.064l-0.256,0.292c-2.734,3.172-5.396,5.689-7.074,5.689c-0.839,0-1.313-0.583-0.438-2.079
		l5.47-9.591c1.642-2.881,0.073-4.96-2.042-4.96c-1.642,0-3.392,0.912-5.288,2.881l6.054-10.54h-3.793l-10.697,18.559
		c-0.148-0.104-0.297-0.192-0.434-0.251l-0.256,0.292c-2.735,3.172-5.397,5.689-7.075,5.689c-0.838,0-1.312-0.583-0.438-2.079
		l8.133-14.187h3.1l1.095-1.823h-3.137l3.574-6.2h-3.793l-3.574,6.2h-3.428l-1.094,1.823h3.464l-7.623,13.204
		c-1.604,2.808-0.474,5.397,2.589,5.397c1.885,0,3.941-1.216,5.962-2.975l-1.504,2.61h3.83l5.762-10.029
		c5.835-7.33,8.424-6.382,6.783-3.574l-4.923,8.571c-1.604,2.808-0.475,5.397,2.589,5.397c2.305,0,4.864-1.813,7.304-4.221
		C242.457,303.419,244.387,305.201,247.491,305.201z M250.554,291.562c2.188-3.756,6.054-3.136,3.793,0.802l-0.547,0.948
		c-1.824,3.1-4.268,3.027-5.689,2.516L250.554,291.562z"/>
	<path fill="#FFFFFF" d="M362.51,296.887l-0.256,0.292c-2.734,3.172-5.397,5.689-7.074,5.689c-0.839,0-1.313-0.583-0.438-2.079
		l12.837-22.209h-3.793l-5.58,9.628c-0.656-1.058-1.896-1.97-3.464-1.97c-2.043,0-4.888,1.605-6.492,4.376l-3.711,6.406
		c-0.08-0.047-0.162-0.101-0.237-0.133l-0.256,0.292c-2.734,3.172-5.396,5.689-7.074,5.689c-0.839,0-1.313-0.583-0.438-2.079
		l5.47-9.591c1.642-2.881,0.073-4.96-2.042-4.96c-1.642,0-3.355,0.875-5.252,2.845l1.423-2.48h-3.793l-6.062,10.487
		c-0.123-0.081-0.246-0.153-0.36-0.203l-0.256,0.292c-2.734,3.172-5.397,5.689-7.074,5.689c-0.839,0-1.313-0.583-0.438-2.079
		l6.126-10.722h-2.151c0.146-1.605-1.495-3.83-3.975-3.83c-2.043,0-4.888,1.605-6.492,4.376l-3.667,6.329l-0.206,0.235
		c-2.734,3.172-5.397,5.689-7.074,5.689c-0.839,0-1.313-0.583-0.438-2.079l3.792-6.637c1.313-2.298,0.693-3.647-0.547-5.142
		l-2.115-2.553c-0.547-0.693-0.547-1.458,0.219-2.188l-1.969-2.151c-2.152,1.933-2.334,4.084-0.985,5.835l0.329,0.438
		c-1.678,2.371-3.939,5.58-6.419,8.497c0.074,0.108,0.163,0.215,0.258,0.322c-3.125,3.592-5.781,5.918-8.763,7.191l4.813-8.242
		h-3.792l-0.401,0.657c-2.006,3.537-4.304,6.054-7.258,6.054c-2.589,0-3.062-2.589-0.802-6.455l1.058-1.86
		c0.692,0.109,1.386,0.183,2.151,0.183c13.493,0,20.021-18.052,8.133-18.052c-2.079,0-4.559,1.459-6.272,4.449l-5.908,10.175
		c-2.225-1.167-3.392-3.282-3.392-5.397c0-1.75,0.803-3.501,2.443-4.777l-1.24-2.225c-2.698,1.933-3.901,4.522-3.901,7.075
		c0,3.027,1.714,5.944,4.777,7.549l-1.131,1.969c-2.662,4.595-2.188,9.701,3.173,9.701c1.604,0,2.954-0.474,4.121-1.204
		l-0.985,1.714c-5.142,1.568-8.314,3.646-8.314,6.491c0,3.647,5.58,4.413,8.314-0.255l2.918-4.996
		c3.938-1.24,7.804-3.938,11.962-8.752c-0.059-0.117-0.143-0.238-0.236-0.357c1.684-1.979,3.114-3.888,5.97-7.775l0.51,0.62
		c0.475,0.62,0.657,1.386,0.219,2.152l-4.011,6.963c-1.605,2.808-0.475,5.397,2.589,5.397c1.907,0,3.989-1.244,6.033-3.036
		c-0.044,1.745,1.149,3.036,3.311,3.036c1.531,0,3.428-0.985,5.251-2.48c0.183,1.459,1.35,2.48,3.282,2.48
		c1.816,0,3.792-1.129,5.742-2.785l-1.398,2.42h3.829l5.798-10.102c5.799-7.257,8.388-6.309,6.747-3.501l-4.923,8.571
		c-1.604,2.808-0.475,5.397,2.589,5.397c2.016,0,4.226-1.388,6.381-3.346c-0.202,1.901,1.006,3.346,3.294,3.346
		c1.531,0,3.428-0.985,5.251-2.48c0.183,1.459,1.35,2.48,3.282,2.48c3.137,0,6.747-3.355,9.883-7.002
		C363.677,297.689,363.021,297.105,362.51,296.887z M284.547,282.737c1.131-1.933,2.371-2.771,3.429-2.771
		c6.018,0,1.787,12.253-8.133,12.253h-0.766L284.547,282.737z M276.488,311.328c-0.802,1.422-2.078,1.204-2.078,0.183
		c0-0.985,0.875-2.115,3.793-3.246L276.488,311.328z M316.181,297.543c-2.298,3.61-4.559,5.324-6.127,5.324
		c-0.839,0-1.312-0.583-0.438-2.079l5.288-9.227c2.042-3.538,6.09-2.626,4.23,0.802L316.181,297.543z M352.882,297.324
		c-2.298,3.756-4.632,5.543-6.236,5.543c-0.839,0-1.312-0.583-0.438-2.079l5.288-9.227c2.042-3.538,6.09-2.626,4.23,0.802h0.036
		L352.882,297.324z"/>
	<path fill="#FFFFFF" d="M235.805,332.886l-0.255,0.293c-2.735,3.172-5.397,5.688-7.075,5.688c-0.839,0-1.312-0.583-0.438-2.079
		l5.471-9.591c1.641-2.881,0.072-4.96-2.043-4.96c-1.641,0-3.354,0.875-5.251,2.845l1.422-2.479h-3.793l-6.112,10.574
		c-0.165-0.119-0.331-0.225-0.484-0.291l-0.255,0.293c-1.714,1.859-3.83,2.771-5.726,2.808l3.574-6.163
		c2.297-3.976,0.182-7.731-3.392-7.731c-2.917,0-5.178,1.167-7.367,4.96l-1.86,3.245l-1.626,2.782
		c-0.117-0.076-0.234-0.146-0.343-0.193l-0.255,0.293c-3.136,3.609-5.798,5.943-8.789,7.221l10.394-17.797h-3.792l-6.71,11.67
		c-2.917,2.698-5.178,4.193-5.908,3.865c-0.948-0.4,0-1.823,0.474-2.625l7.403-12.91h-3.793l-6.051,10.47
		c-0.113-0.072-0.226-0.142-0.331-0.187l-0.255,0.293c-2.735,3.172-5.397,5.688-7.075,5.688c-0.838,0-1.312-0.583-0.438-2.079
		l5.47-9.591c1.641-2.881,0.073-4.96-2.042-4.96c-1.641,0-3.355,0.875-5.251,2.845l1.422-2.479h-3.793l-6.062,10.486
		c-0.123-0.081-0.246-0.153-0.36-0.203l-0.255,0.293c-2.735,3.172-5.397,5.688-7.075,5.688c-0.838,0-1.312-0.583-0.438-2.079
		l6.127-10.721h-2.152c0.146-1.605-1.495-3.83-3.975-3.83c-2.042,0-4.887,1.605-6.491,4.377l-3.918,6.762
		c-0.259-0.235-0.558-0.417-0.831-0.49l-0.255,0.293c-2.735,3.172-6.09,5.688-9.847,5.688c-2.589,0-4.157-2.589-1.896-6.455
		l1.058-1.86c0.693,0.109,1.386,0.184,2.151,0.184c4.048,0,8.643-2.08,11.634-7.295c1.057-1.859,1.531-3.609,1.531-5.105
		c0-3.428-2.225-5.652-5.032-5.652c-2.079,0-4.559,1.459-6.273,4.449l-5.908,10.175c-2.225-1.167-3.392-3.282-3.392-5.397
		c0-1.75,0.802-3.501,2.443-4.777l-1.24-2.225c-2.699,1.934-3.902,4.521-3.902,7.075c0,3.026,1.714,5.944,4.777,7.549l-1.13,1.97
		c-2.662,4.595-1.094,9.7,4.267,9.7c4.241,0,7.353-1.889,9.968-4.372c-0.826,2.383,0.374,4.372,3.059,4.372
		c1.532,0,3.428-0.985,5.251-2.479c0.183,1.459,1.35,2.479,3.282,2.479c1.816,0,3.792-1.129,5.742-2.784l-1.399,2.42h3.83
		l5.798-10.102c5.798-7.258,8.388-6.31,6.747-3.502l-4.922,8.568c-1.604,2.809-0.474,5.397,2.589,5.397
		c2.041,0,4.282-1.425,6.464-3.423c-0.455,2.086,0.509,3.423,2.398,3.423c1.824,0,3.902-1.532,5.616-3.063l-2.079,3.574
		c-5.142,1.531-8.351,3.646-8.351,6.491c0,3.647,5.58,4.413,8.314-0.255l2.917-4.996c3.171-0.998,6.297-2.965,9.563-6.196
		c-0.524,5.297,6.533,6.505,10.786,1.126h0.839c1.385,0,3.26-0.523,4.952-1.455l-2.549,4.41h3.83l5.798-10.102
		c5.798-7.258,8.388-6.31,6.747-3.502l-4.923,8.571c-1.604,2.809-0.475,5.397,2.59,5.397c3.136,0,6.746-3.354,9.883-7.002
		C236.972,333.689,236.316,333.105,235.805,332.886z M141.418,318.737c1.13-1.933,2.371-2.771,3.428-2.771
		c1.422,0,2.079,0.948,2.079,2.334c0,3.538-4.303,9.919-10.211,9.919h-0.766L141.418,318.737z M154.773,333.543
		c-2.297,3.61-4.559,5.324-6.127,5.324c-0.838,0-1.312-0.583-0.438-2.079l5.288-9.227c2.042-3.537,6.09-2.625,4.23,0.803
		L154.773,333.543z M183.624,347.327c-0.803,1.423-2.079,1.204-2.079,0.184c0-0.985,0.912-2.115,3.829-3.246L183.624,347.327z
		 M209.151,333.142h-0.183c-1.24,0-2.225,1.021-2.225,2.262c0,0.474,0.146,0.911,0.365,1.275l-0.036,0.073
		c-1.787,3.063-6.127,2.479-3.866-1.459l2.881-4.996l1.823-3.1c2.663-4.522,6.309-2.735,4.012,1.204L209.151,333.142z"/>
	<path fill="#FFFFFF" d="M323.712,334.2c-0.219-0.583-0.875-1.167-1.422-1.313l-0.256,0.293c-1.386,1.641-3.063,3.1-4.559,4.12
		c1.204-3.61,0.948-9.153,3.282-14.004l-2.845-1.532c-1.567,2.152-4.996,7.112-8.424,11.123c0.006,0.01,0.015,0.018,0.021,0.026
		c-0.015-0.007-0.031-0.02-0.046-0.026l-0.255,0.293c-2.735,3.172-5.397,5.688-7.075,5.688c-0.839,0-1.641-0.839-1.641-2.553v-1.568
		c2.662,0.328,5.47-1.423,7.257-4.522l1.021-1.75c3.537-6.054-2.225-8.06-6.091-4.521l5.397-9.373h-3.793l-10.816,18.766
		c-0.23-0.195-0.475-0.364-0.695-0.459l-0.255,0.293c-2.735,3.172-6.236,5.688-8.898,5.688c-2.334,0-3.72-1.459-1.97-4.522
		l3.902-6.783c2.188-3.756,6.054-3.136,3.793,0.803l-0.547,0.948h3.1l0.547-0.948c2.042-3.501,0.073-6.127-3.027-6.127
		c-3.062,0-5.507,1.605-7.111,4.377l-3.732,6.404c-0.079-0.047-0.161-0.101-0.235-0.133l-0.256,0.293
		c-2.734,3.172-5.396,5.688-7.074,5.688c-0.839,0-1.313-0.583-0.438-2.079l8.096-14.186h-3.793l-6.746,11.779
		c-2.882,2.625-5.106,4.084-5.835,3.756c-0.948-0.4,0-1.823,0.474-2.625l7.403-12.91h-3.793l-7.365,12.744
		c-0.821,0.746-1.66,1.413-2.45,1.952c1.203-3.61,0.948-9.153,3.282-14.004l-2.845-1.532c-1.568,2.152-10.32,13.75-13.749,17.761
		c0.328,0.474,0.876,0.948,1.423,1.313c2.151-2.48,9.372-11.779,10.722-13.566c-1.495,3.938-0.693,11.014-4.304,11.014
		c-1.276,0-1.787-1.387-1.787-1.387l-2.37,1.24c0,0,0.693,3.063,4.157,3.063c0.365,0,0.693-0.036,1.058-0.073
		c0.036,0,0.073-0.036,0.109-0.036c1.926-0.255,3.841-1.142,5.631-2.379c-0.013,1.542,0.919,2.488,2.508,2.488
		c2.078,0,4.412-1.896,6.235-3.647c-0.364,2.043,0.839,3.647,3.246,3.647c2.355,0,4.979-1.893,7.467-4.38
		c0.034,2.519,1.975,4.38,5.145,4.38c3.078,0,6.136-1.72,8.776-4.032l-2.114,3.668h3.829l4.34-7.549v3.026
		c0,3.245,0.62,4.887,3.683,4.887c3.137,0,6.747-3.354,9.884-7.002c-0.006-0.011-0.017-0.022-0.022-0.034
		c0.016,0.012,0.031,0.023,0.047,0.034c2.152-2.479,4.049-5.142,5.397-6.929c-1.495,3.938-0.692,11.014-4.303,11.014
		c-1.276,0-1.787-1.387-1.787-1.387l-2.37,1.24c0,0,0.692,3.063,4.157,3.063c0.364,0,0.692-0.036,1.058-0.073
		c0.036,0,0.072-0.036,0.109-0.036C317.039,340.581,320.868,337.518,323.712,334.2z M298.524,331.209l1.094-1.896
		c4.377-6.091,7.367-4.413,6.018-2.115l-1.823,3.136C302.681,332.303,299.363,333.689,298.524,331.209z"/>
	<path fill="#FFFFFF" d="M323.565,336.788c-1.239,0-2.188,0.984-2.188,2.225s0.948,2.188,2.188,2.188
		c1.24,0,2.225-0.948,2.225-2.188C325.79,337.773,324.805,336.788,323.565,336.788z"/>
	<polygon fill="#FFFFFF" points="323.748,335.293 327.577,335.293 339.465,314.579 335.673,314.579 	"/>
</g>
<g>
	<path fill="#FFFFFF" d="M79.504,278.704c0,0.293-0.057,0.587-0.169,0.879c-0.113,0.294-0.282,0.559-0.507,0.796
		c-0.226,0.237-0.502,0.428-0.829,0.575c-0.327,0.147-0.694,0.22-1.1,0.22c-0.451,0-0.885-0.084-1.302-0.253
		c-0.417-0.17-0.772-0.412-1.065-0.728c-0.249-0.293-0.44-0.643-0.575-1.049c-0.136-0.406-0.203-0.834-0.203-1.285
		c0-0.856,0.152-1.646,0.457-2.368c0.304-0.722,0.738-1.364,1.302-1.928c0.248-0.248,0.529-0.479,0.845-0.694
		c0.316-0.213,0.615-0.394,0.897-0.541c0.281-0.146,0.524-0.264,0.727-0.355c0.203-0.09,0.327-0.146,0.372-0.169l1.353,1.996
		c-0.249,0.09-0.524,0.209-0.829,0.355c-0.304,0.147-0.592,0.327-0.862,0.541c-0.271,0.214-0.496,0.468-0.677,0.761
		c-0.18,0.293-0.282,0.632-0.304,1.015c0.654,0,1.229,0.192,1.725,0.575S79.504,277.983,79.504,278.704z M87.37,278.704
		c0,0.293-0.057,0.587-0.169,0.879c-0.113,0.293-0.282,0.558-0.507,0.795c-0.226,0.237-0.502,0.429-0.829,0.575
		c-0.328,0.147-0.694,0.22-1.1,0.22c-0.451,0-0.885-0.084-1.302-0.253c-0.417-0.169-0.772-0.411-1.065-0.727
		c-0.248-0.293-0.44-0.643-0.575-1.049c-0.135-0.406-0.203-0.834-0.203-1.285c0-0.856,0.152-1.646,0.457-2.368
		c0.304-0.722,0.738-1.364,1.302-1.928c0.248-0.248,0.529-0.479,0.846-0.693c0.315-0.214,0.614-0.394,0.896-0.541
		c0.282-0.146,0.524-0.265,0.728-0.355c0.203-0.09,0.327-0.146,0.372-0.169l1.353,1.996c-0.249,0.09-0.524,0.209-0.829,0.355
		c-0.305,0.147-0.592,0.327-0.863,0.541c-0.271,0.214-0.496,0.468-0.676,0.761c-0.181,0.293-0.282,0.631-0.305,1.015
		c0.654,0,1.229,0.192,1.725,0.575C87.122,277.43,87.37,277.983,87.37,278.704z"/>
</g>
<g>
	<path fill="#FFFFFF" d="M352.53,337.646c0-0.294,0.057-0.588,0.168-0.88c0.113-0.294,0.283-0.558,0.508-0.795
		c0.226-0.237,0.502-0.429,0.828-0.575c0.328-0.146,0.694-0.22,1.1-0.22c0.451,0,0.886,0.085,1.303,0.253
		c0.418,0.17,0.772,0.412,1.065,0.729c0.249,0.293,0.44,0.643,0.575,1.048c0.135,0.406,0.203,0.834,0.203,1.286
		c0,0.855-0.152,1.645-0.457,2.367c-0.305,0.722-0.738,1.364-1.303,1.928c-0.248,0.248-0.529,0.479-0.846,0.693
		c-0.314,0.215-0.613,0.395-0.896,0.541c-0.281,0.146-0.523,0.266-0.727,0.355c-0.204,0.089-0.326,0.146-0.372,0.17l-1.353-1.996
		c0.248-0.09,0.523-0.209,0.828-0.355c0.305-0.146,0.592-0.327,0.863-0.541c0.27-0.215,0.496-0.469,0.676-0.762
		c0.181-0.293,0.282-0.631,0.305-1.014c-0.654,0-1.229-0.192-1.725-0.576C352.778,338.919,352.53,338.366,352.53,337.646z
		 M344.663,337.646c0-0.294,0.057-0.588,0.17-0.88c0.113-0.294,0.281-0.558,0.507-0.795s0.503-0.429,0.829-0.575
		c0.327-0.146,0.693-0.22,1.1-0.22c0.451,0,0.885,0.085,1.302,0.253c0.417,0.17,0.772,0.412,1.065,0.729
		c0.248,0.293,0.439,0.643,0.575,1.048c0.136,0.406,0.202,0.834,0.202,1.286c0,0.855-0.151,1.645-0.456,2.367
		c-0.304,0.722-0.738,1.364-1.302,1.928c-0.248,0.248-0.529,0.479-0.846,0.693c-0.317,0.214-0.614,0.395-0.896,0.541
		c-0.281,0.146-0.524,0.266-0.728,0.355c-0.204,0.089-0.327,0.146-0.372,0.17l-1.354-1.996c0.249-0.09,0.525-0.209,0.829-0.355
		c0.305-0.146,0.593-0.327,0.862-0.541c0.271-0.215,0.496-0.469,0.677-0.762s0.282-0.631,0.305-1.014
		c-0.653,0-1.229-0.192-1.726-0.576C344.912,338.919,344.663,338.366,344.663,337.646z"/>
</g>
</svg>
