<?xml version="1.0" encoding="utf-8"?>
<!-- Generator: Adobe Illustrator 17.0.2, SVG Export Plug-In . SVG Version: 6.00 Build 0)  -->
<!DOCTYPE svg PUBLIC "-//W3C//DTD SVG 1.1//EN" "http://www.w3.org/Graphics/SVG/1.1/DTD/svg11.dtd">
<svg version="1.1" id="Layer_1" xmlns="http://www.w3.org/2000/svg" xmlns:xlink="http://www.w3.org/1999/xlink" x="0px" y="0px"
   width="459.754px" height="351.196px" viewBox="0 0 459.754 351.196" enable-background="new 0 0 459.754 351.196"
   xml:space="preserve">
<g>
  <path fill="#FFFFFF" d="M44.467,158.737c-3.573-2.978-8.139-4.963-12.903-4.963c-3.573,0-8.338,2.084-8.338,6.253
    c0,4.368,5.261,6.055,8.636,7.146l4.963,1.489c10.422,3.077,18.462,8.337,18.462,20.447c0,7.445-1.787,15.088-7.742,20.15
    c-5.856,4.963-13.698,7.047-21.241,7.047c-9.43,0-18.661-3.176-26.304-8.537l8.338-15.682c4.864,4.268,10.621,7.742,17.271,7.742
    c4.566,0,9.43-2.283,9.43-7.544c0-5.46-7.643-7.345-11.812-8.536c-12.208-3.475-20.249-6.65-20.249-21.143
    c0-15.187,10.819-25.112,25.807-25.112c7.543,0,16.775,2.382,23.425,6.154L44.467,158.737z"/>
  <path fill="#FFFFFF" d="M91.832,155.958v12.506h21.936v16.478H91.832v12.902h23.127v16.478H72.377v-74.841h42.582v16.477H91.832z"
    />
  <path fill="#FFFFFF" d="M129.417,139.481h27.594c20.844,0,38.016,16.377,38.016,37.42c0,21.042-17.271,37.42-38.016,37.42h-27.594
    V139.481z M148.872,197.845h4.367c11.613,0,21.54-6.352,21.54-20.943c0-13.4-8.834-20.943-21.341-20.943h-4.566V197.845z"/>
  <path fill="#FFFFFF" d="M286.872,175.512c0,24.219-17.37,41.292-41.391,41.292s-41.391-17.072-41.391-41.292
    c0-22.631,19.852-38.512,41.391-38.512S286.872,152.881,286.872,175.512z M224.339,175.611c0,12.903,9.529,22.333,21.142,22.333
    c11.613,0,21.142-9.43,21.142-22.333c0-10.323-9.528-19.752-21.142-19.752C233.867,155.859,224.339,165.289,224.339,175.611z"/>
  <path fill="#FFFFFF" d="M297.238,139.481h19.455l35.634,45.758h0.198v-45.758h19.454v74.841h-19.454l-35.634-45.857h-0.198v45.857
    h-19.455V139.481z"/>
  <path fill="#FFFFFF" d="M407.346,201.319l-5.161,13.003h-20.646l28.785-74.841h21.241l28.189,74.841h-20.745l-4.863-13.003H407.346
    z M420.944,162.608h-0.199l-8.039,23.822h16.179L420.944,162.608z"/>
</g>
</svg>
