<?xml version="1.0" encoding="utf-8"?>
<!-- Generator: Adobe Illustrator 17.0.2, SVG Export Plug-In . SVG Version: 6.00 Build 0)  -->
<!DOCTYPE svg PUBLIC "-//W3C//DTD SVG 1.1//EN" "http://www.w3.org/Graphics/SVG/1.1/DTD/svg11.dtd">
<svg version="1.1" id="Layer_1" xmlns="http://www.w3.org/2000/svg" xmlns:xlink="http://www.w3.org/1999/xlink" x="0px" y="0px"
     width="281.309px" height="293.978px" viewBox="0 0 281.309 293.978" enable-background="new 0 0 281.309 293.978"
     xml:space="preserve">
<g>
    <path fill="#81B3D2" d="M89.506,0h5.879l-0.923,34.259H83.384l-1.506-14.144l-1.506,14.144H69.244L68.37,0h5.831l0.486,28.336
        h0.632L78.962,0h5.782l3.741,28.336h0.583L89.506,0z"/>
    <path fill="#81B3D2" d="M113.798,28.336v5.923H97.861V0h15.937v5.873h-10.107v8.271h8.066v5.873h-8.066v8.32H113.798z"/>
    <path fill="#81B3D2" d="M130.074,28.336v5.923h-13.944V0h5.831v28.336H130.074z"/>
    <path fill="#81B3D2" d="M142.463,21.632l5.879-1.371v10.376c0,1.958-1.652,3.622-3.595,3.622H136c-1.992,0-3.595-1.664-3.595-3.622
        V3.622C132.405,1.615,134.008,0,136,0h8.746c1.943,0,3.595,1.615,3.595,3.622v6.95l-5.879,1.37V5.873h-4.228v22.463h4.228
        L142.463,21.632L142.463,21.632z"/>
    <path fill="#81B3D2" d="M164.179,0c1.943,0,3.595,1.615,3.595,3.622v27.015c0,1.958-1.652,3.622-3.595,3.622h-8.747
        c-1.991,0-3.595-1.664-3.595-3.622V3.622c0-2.007,1.604-3.622,3.595-3.622H164.179z M161.896,5.873h-4.228v22.463h4.228V5.873z"/>
    <path fill="#81B3D2" d="M186.867,0h5.782v34.259h-5.831V17.423l-2.332,8.712h-5.685l-2.284-8.712v16.836h-5.831V0h5.782
        l5.199,16.541L186.867,0z"/>
    <path fill="#81B3D2" d="M211.5,28.336v5.923h-15.937V0H211.5v5.873h-10.107v8.271h8.066v5.873h-8.066v8.32H211.5z"/>
</g>
<g>
    <path fill="#766357" d="M90.441,54.871l-0.157,0.178c-1.049,1.138-2.343,1.696-3.504,1.718l2.187-3.772
        c1.406-2.432,0.112-4.731-2.076-4.731c-1.786,0-3.17,0.714-4.508,3.035l-1.138,1.986l-0.951,1.626l-0.119,0.137
        c-1.674,1.942-3.303,3.481-4.33,3.481c-0.513,0-0.804-0.357-0.267-1.272l4.977-8.682h1.897l0.67-1.116h-1.919l2.187-3.793h-2.322
        l-2.187,3.794h-2.098l-0.67,1.116h2.12l-4.665,8.079c-0.982,1.718-0.29,3.304,1.584,3.304c1.348,0,2.839-1.015,4.272-2.391
        c-0.004,2.958,4.107,3.535,6.619,0.359h0.513c1.384,0,3.571-0.848,4.754-2.254C91.155,55.361,90.753,55.005,90.441,54.871z
         M85.486,55.027h-0.112c-0.759,0-1.361,0.625-1.361,1.384c0,0.289,0.089,0.557,0.223,0.781l-0.022,0.044
        c-1.094,1.875-3.749,1.518-2.366-0.892l1.763-3.058l1.116-1.897c1.629-2.767,3.861-1.674,2.455,0.736L85.486,55.027z"/>
    <path fill="#766357" d="M122.575,54.871l-0.157,0.178c-1.674,1.942-3.817,3.481-5.445,3.481c-1.429,0-2.277-0.892-1.205-2.767
        l0.223-0.402c1.495,0.625,4.307,0.335,6.048-2.678l0.335-0.581c1.25-2.143,0.045-3.749-1.853-3.749
        c-1.875,0-3.37,0.982-4.352,2.678l-2.253,3.864l-0.134,0.153c-1.674,1.942-3.303,3.481-4.33,3.481
        c-0.513,0-0.804-0.357-0.268-1.272l3.349-5.869c1.004-1.763,0.045-3.035-1.25-3.035c-1.004,0-2.076,0.558-3.236,1.763l3.705-6.449
        h-2.322L102.955,54.9l-0.13,0.149c-1.674,1.942-3.303,3.481-4.33,3.481c-0.513,0-0.804-0.357-0.267-1.272l4.977-8.682h1.897
        l0.67-1.116h-1.919l2.188-3.793h-2.322l-2.187,3.794h-2.098l-0.67,1.116h2.12l-4.665,8.079c-0.982,1.718-0.29,3.304,1.584,3.304
        c0.94,0,1.951-0.495,2.963-1.261l-0.598,1.037h2.343l3.526-6.137c3.571-4.487,5.156-3.906,4.151-2.187l-3.013,5.245
        c-0.982,1.719-0.29,3.304,1.584,3.304c1.381,0,2.912-1.066,4.377-2.494c0.112,1.446,1.281,2.494,3.142,2.494
        c2.633,0,5.245-2.053,7.165-4.286C123.289,55.361,122.888,55.005,122.575,54.871z M118.156,51.612
        c1.339-2.298,3.705-1.919,2.322,0.491l-0.335,0.581c-1.115,1.897-2.611,1.853-3.482,1.54L118.156,51.612z"/>
    <path fill="#766357" d="M207.197,54.871l-0.156,0.178c-0.849,1.004-1.875,1.897-2.791,2.522c0.736-2.209,0.581-5.602,2.009-8.57
        l-1.741-0.937c-0.96,1.317-3.057,4.352-5.155,6.807l0.001,0.001l-0.156,0.178c-1.674,1.942-3.303,3.481-4.33,3.481
        c-0.513,0-0.803-0.357-0.267-1.272l4.955-8.682h-2.321l-4.129,7.209c-1.763,1.606-3.125,2.5-3.57,2.298
        c-0.581-0.245,0-1.115,0.29-1.606l4.531-7.901h-2.321l-3.639,6.297l-0.153,0.176c-1.05,1.138-2.343,1.696-3.504,1.718l2.187-3.772
        c1.406-2.432,0.112-4.731-2.076-4.731c-1.785,0-3.169,0.714-4.507,3.035l-1.139,1.986l-0.95,1.625l-0.12,0.138
        c-1.674,1.942-3.817,3.481-5.445,3.481c-1.429,0-2.277-0.892-1.205-2.767l0.223-0.402c1.495,0.625,4.307,0.335,6.048-2.678
        l0.335-0.581c1.25-2.143,0.045-3.749-1.853-3.749c-1.875,0-3.37,0.982-4.352,2.678l-2.251,3.863l-0.136,0.154
        c-1.919,2.21-3.57,3.637-5.401,4.418l5.2-8.882h-1.362c0-0.96-0.982-2.232-2.432-2.232c-1.25,0-2.991,0.982-3.973,2.678
        l-2.225,3.842c-0.002-0.001-0.004-0.002-0.005-0.003l-0.156,0.178c-1.674,1.942-3.304,3.481-4.33,3.481
        c-0.513,0-0.803-0.357-0.268-1.272l2.322-4.063c0.803-1.406,0.424-2.232-0.336-3.147l-1.294-1.563
        c-0.335-0.424-0.335-0.893,0.134-1.339l-1.205-1.317c-1.317,1.183-1.429,2.5-0.602,3.571l0.201,0.268
        c-1.026,1.451-2.41,3.415-3.928,5.2l0.001,0.001l-0.155,0.178c-1.05,1.138-2.343,1.696-3.504,1.718l2.187-3.772
        c1.406-2.432,0.112-4.731-2.076-4.731c-1.785,0-3.169,0.714-4.507,3.035l-1.139,1.986l-0.952,1.629l-0.118,0.135
        c-1.92,2.21-3.571,3.637-5.401,4.418l5.2-8.882h-1.361c0-0.96-0.982-2.232-2.433-2.232c-1.25,0-2.991,0.982-3.973,2.678
        l-3.259,5.624c-0.982,1.718-0.29,3.304,1.584,3.304c0.647,0,1.429-0.291,2.21-0.781l-0.647,1.093
        c-3.125,0.96-5.089,2.232-5.089,3.973c0,2.232,3.415,2.701,5.089-0.156l1.763-3.058c1.857-0.579,3.677-1.671,5.566-3.474
        c-0.017,2.97,4.103,3.554,6.619,0.372h0.513c1.384,0,3.571-0.848,4.754-2.254l-0.001-0.001c1.115-1.294,1.986-2.455,3.838-4.976
        l0.312,0.379c0.29,0.38,0.402,0.848,0.134,1.317l-2.455,4.263c-0.983,1.718-0.291,3.304,1.584,3.304
        c1.177,0,2.462-0.773,3.722-1.884c-0.038,1.078,0.681,1.884,2.013,1.884c0.647,0,1.429-0.291,2.21-0.781l-0.647,1.093
        c-3.125,0.96-5.088,2.232-5.088,3.973c0,2.232,3.415,2.701,5.088-0.156l1.763-3.058c1.891-0.59,3.744-1.716,5.67-3.579
        c0.104,1.453,1.277,2.508,3.145,2.508c1.89,0,3.766-1.06,5.386-2.481c-0.091,3.039,4.082,3.659,6.621,0.45h0.513
        c0.727,0,1.673-0.239,2.58-0.664c-0.624,1.613-0.049,2.696,1.279,2.696c1.272,0,2.7-1.161,3.816-2.232
        c-0.223,1.25,0.513,2.232,1.986,2.232c1.92,0,4.129-2.053,6.049-4.286l-0.001-0.001c1.316-1.518,2.477-3.146,3.303-4.239
        c-0.915,2.41-0.425,6.74-2.634,6.74c-0.781,0-1.093-0.848-1.093-0.848l-1.451,0.759c0,0,0.424,1.876,2.544,1.876
        c0.223,0,0.425-0.022,0.647-0.046c0.022,0,0.045-0.022,0.067-0.022c2.366-0.312,4.709-2.187,6.45-4.218
        C207.934,55.317,207.531,54.96,207.197,54.871z M173.879,51.612c1.339-2.298,3.704-1.919,2.321,0.491l-0.335,0.581
        c-1.116,1.897-2.611,1.853-3.482,1.54L173.879,51.612z M129.559,63.708c-0.491,0.87-1.272,0.737-1.272,0.112
        c0-0.602,0.558-1.294,2.321-1.986L129.559,63.708z M130.631,58.531c-0.513,0-0.804-0.357-0.267-1.272l3.236-5.647
        c1.25-2.165,3.728-1.607,2.589,0.491l-1.763,3.08C133.019,57.438,131.613,58.531,130.631,58.531z M144.891,55.027h-0.112
        c-0.759,0-1.361,0.625-1.361,1.384c0,0.289,0.089,0.557,0.223,0.781l-0.022,0.044c-1.093,1.875-3.749,1.518-2.366-0.892
        l1.763-3.058l1.115-1.897c1.63-2.767,3.861-1.674,2.456,0.736L144.891,55.027z M159.485,63.708
        c-0.491,0.87-1.273,0.737-1.273,0.112c0-0.602,0.558-1.294,2.322-1.986L159.485,63.708z M160.556,58.531
        c-0.513,0-0.803-0.357-0.268-1.272l3.237-5.647c1.25-2.165,3.727-1.607,2.589,0.491l-1.763,3.08
        C162.944,57.438,161.537,58.531,160.556,58.531z M183.453,55.027h-0.112c-0.759,0-1.361,0.625-1.361,1.384
        c0,0.289,0.089,0.557,0.223,0.781l-0.022,0.044c-1.093,1.875-3.749,1.518-2.366-0.892l1.763-3.058l1.115-1.897
        c1.63-2.767,3.861-1.674,2.456,0.736L183.453,55.027z"/>
</g>
<rect x="40.832" y="52.406" fill="#766357" width="22.415" height="1.518"/>
<rect x="216.791" y="52.406" fill="#766357" width="22.416" height="1.518"/>
<g>
    <path fill="#FFFFFF" d="M27.208,139.108c-2.186-1.822-4.98-3.037-7.895-3.037c-2.186,0-5.102,1.275-5.102,3.826
        c0,2.673,3.219,3.705,5.284,4.372l3.037,0.911c6.377,1.883,11.296,5.101,11.296,12.511c0,4.555-1.093,9.232-4.737,12.329
        c-3.583,3.037-8.381,4.312-12.997,4.312c-5.77,0-11.418-1.943-16.095-5.224l5.102-9.595c2.976,2.611,6.499,4.737,10.568,4.737
        c2.794,0,5.77-1.397,5.77-4.616c0-3.341-4.677-4.494-7.227-5.223c-7.47-2.126-12.39-4.069-12.39-12.937
        c0-9.292,6.62-15.365,15.791-15.365c4.615,0,10.264,1.457,14.333,3.765L27.208,139.108z"/>
    <path fill="#FFFFFF" d="M56.189,137.408v7.652h13.422v10.082H56.189v7.894H70.34v10.082H44.285v-45.793H70.34v10.082H56.189z"/>
    <path fill="#FFFFFF" d="M79.186,127.326H96.07c12.754,0,23.261,10.021,23.261,22.896c0,12.875-10.568,22.896-23.261,22.896H79.186
        V127.326z M91.09,163.037h2.672c7.106,0,13.18-3.887,13.18-12.814c0-8.199-5.405-12.814-13.058-12.814H91.09V163.037z"/>
    <path fill="#FFFFFF" d="M175.528,149.372c0,14.819-10.628,25.265-25.326,25.265c-14.698,0-25.326-10.446-25.326-25.265
        c0-13.847,12.147-23.564,25.326-23.564C163.381,125.808,175.528,135.525,175.528,149.372z M137.266,149.433
        c0,7.895,5.831,13.665,12.936,13.665c7.106,0,12.936-5.77,12.936-13.665c0-6.316-5.83-12.086-12.936-12.086
        C143.096,137.347,137.266,143.117,137.266,149.433z"/>
    <path fill="#FFFFFF" d="M181.871,127.326h11.904l21.803,27.998h0.121v-27.998h11.903v45.793h-11.903l-21.803-28.059h-0.121v28.059
        h-11.904V127.326z"/>
    <path fill="#FFFFFF" d="M249.243,165.163l-3.158,7.956h-12.633l17.613-45.793h12.997l17.248,45.793h-12.693l-2.976-7.956H249.243z
         M257.563,141.476h-0.122l-4.919,14.576h9.899L257.563,141.476z"/>
</g>
<g>
    <path fill="#FFFFFF" d="M64.62,252.407c5.107-1.727,5.497-8.124,0.462-8.124c-1.387,0-3.04,0.973-4.183,2.967l-6.811,11.772
        c-0.316,0.56-0.632,1.022-0.972,1.435c-1.751-2.408-1.24-6.007,1.216-7.588l-1.022-1.289c-5.302,3.381-3.745,13.133,5.108,13.133
        C65.982,264.714,69.484,255.642,64.62,252.407z M58.37,262.768c-1.508,0-2.7-0.341-3.648-0.876c0.438-0.511,0.876-1.143,1.264-1.8
        l4.256-7.369l0.681,0.073C66.857,254.037,64.498,262.768,58.37,262.768z M61.093,251.24l2.043-3.502
        c1.848-3.186,4.208-1.313,2.943,1.07C65.107,250.631,63.672,251.191,61.093,251.24z"/>
    <path fill="#FFFFFF" d="M86.014,260.584c-0.419,1.499,0.382,2.718,2.098,2.718c1.022,0,2.286-0.657,3.502-1.654
        c0.122,0.973,0.9,1.654,2.189,1.654c1.347,0,2.824-0.93,4.264-2.239c-0.28,1.366,0.361,2.239,1.607,2.239
        c1.387,0,2.943-1.264,4.159-2.432c-0.243,1.362,0.56,2.432,2.165,2.432c2.091,0,4.5-2.237,6.591-4.67
        c-0.017-0.033-0.046-0.068-0.067-0.101c1.399-1.625,2.632-3.352,3.513-4.52c-0.998,2.627-0.462,7.345-2.87,7.345
        c-0.851,0-1.192-0.924-1.192-0.924l-1.581,0.827c0,0,0.462,2.043,2.772,2.043c0.243,0,0.462-0.025,0.706-0.049
        c0.025,0,0.049-0.024,0.073-0.024c1.858-0.245,3.701-1.376,5.297-2.817c0.039,1.664,1.33,2.89,3.431,2.89
        c2.87,0,5.715-2.237,7.808-4.67c-0.17-0.341-0.608-0.73-0.948-0.876l-0.17,0.195c-1.824,2.115-4.159,3.794-5.934,3.794
        c-1.557,0-2.481-0.973-1.313-3.016l0.243-0.438c1.629,0.681,4.694,0.365,6.591-2.918l0.365-0.632
        c1.362-2.335,0.049-4.086-2.019-4.086c-2.043,0-3.673,1.07-4.742,2.918l-2.456,4.214c-0.023-0.008-0.047-0.025-0.07-0.031
        l-0.17,0.195c-0.924,1.094-2.043,2.067-3.04,2.748c0.802-2.408,0.632-6.104,2.189-9.339l-1.897-1.022
        c-1.046,1.435-3.332,4.743-5.618,7.418c0.021,0.031,0.049,0.061,0.073,0.092l-0.09,0.103c-1.824,2.115-3.599,3.794-4.718,3.794
        c-0.559,0-0.875-0.389-0.292-1.387l5.399-9.462h-2.53l-4.5,7.856c-1.921,1.751-3.405,2.724-3.891,2.505
        c-0.632-0.267,0-1.216,0.316-1.751l4.937-8.61h-2.53l-4.025,6.967c-0.065-0.04-0.131-0.082-0.192-0.108l-0.17,0.195
        c-1.824,2.115-3.599,3.794-4.718,3.794c-0.559,0-0.875-0.389-0.292-1.387l4.086-7.151h-1.435c0.097-1.07-0.997-2.554-2.651-2.554
        c-1.362,0-3.259,1.07-4.329,2.918l-2.565,4.426c-0.13-0.101-0.263-0.191-0.385-0.243l-0.17,0.195
        c-1.824,2.115-4.159,3.794-5.934,3.794c-1.557,0-2.481-0.973-1.314-3.016l2.602-4.524c1.459-2.505,4.037-2.091,2.529,0.535
        l-0.365,0.632h2.067l0.365-0.632c1.362-2.335,0.049-4.086-2.019-4.086c-2.043,0-3.673,1.07-4.742,2.918l-2.514,4.313
        c-0.079-0.051-0.157-0.098-0.231-0.13l-0.17,0.195c-1.824,2.115-4.159,3.794-5.934,3.794c-1.557,0-2.481-0.973-1.314-3.016
        l0.243-0.438c1.629,0.681,4.694,0.365,6.591-2.918l0.365-0.632c1.362-2.335,0.049-4.086-2.019-4.086
        c-2.043,0-3.673,1.07-4.742,2.918l-2.651,4.548c-1.581,2.7-0.219,5.181,2.772,5.181c2.228,0,4.44-1.35,6.297-3.091
        c-0.065,1.765,1.244,3.091,3.429,3.091C82.194,263.303,84.246,262.142,86.014,260.584z M124.715,254.207
        c1.459-2.505,4.037-2.091,2.529,0.535l-0.365,0.632c-1.216,2.067-2.846,2.019-3.794,1.678L124.715,254.207z M88.574,260.36
        l3.527-6.154c1.362-2.36,4.061-1.751,2.821,0.535l-1.97,3.454c-1.532,2.408-3.04,3.551-4.086,3.551
        C88.307,261.746,87.99,261.357,88.574,260.36z M72.445,254.207c1.459-2.505,4.037-2.091,2.529,0.535l-0.365,0.632
        c-1.216,2.067-2.846,2.019-3.794,1.678L72.445,254.207z"/>
    <path fill="#FFFFFF" d="M158.2,263.303c2.87,0,5.715-2.237,7.807-4.67c-0.17-0.341-0.608-0.73-0.948-0.876l-0.17,0.195
        c-1.824,2.115-4.159,3.794-5.934,3.794c-1.557,0-2.481-0.973-1.314-3.016l0.243-0.438c1.629,0.681,4.694,0.365,6.591-2.918
        l0.365-0.632c1.362-2.335,0.049-4.086-2.019-4.086c-2.042,0-3.672,1.07-4.742,2.918l-2.463,4.226
        c-0.025-0.013-0.051-0.032-0.075-0.043l-0.171,0.195c-1.823,2.115-3.599,3.794-4.718,3.794c-0.56,0-0.876-0.389-0.292-1.387
        l3.648-6.396c1.095-1.921,0.049-3.308-1.362-3.308c-1.095,0-2.262,0.608-3.527,1.921l4.037-7.029h-2.53l-7.134,12.377
        c-0.099-0.069-0.198-0.128-0.289-0.167l-0.171,0.195c-1.824,2.115-3.599,3.794-4.718,3.794c-0.559,0-0.875-0.389-0.292-1.387
        l5.424-9.462h2.067l0.73-1.216h-2.092l2.384-4.135h-2.53l-2.384,4.135h-2.286l-0.73,1.216h2.31l-5.084,8.806
        c-1.07,1.873-0.316,3.599,1.727,3.599c1.257,0,2.628-0.811,3.976-1.984l-1.003,1.741h2.554l3.843-6.688
        c3.891-4.888,5.618-4.256,4.524-2.384l-3.283,5.716c-1.07,1.873-0.317,3.599,1.727,3.599c1.537,0,3.244-1.209,4.871-2.815
        C154.842,262.114,156.13,263.303,158.2,263.303z M160.242,254.207c1.459-2.505,4.037-2.091,2.53,0.535l-0.365,0.632
        c-1.216,2.067-2.846,2.019-3.794,1.678L160.242,254.207z"/>
    <path fill="#FFFFFF" d="M234.907,257.758l-0.171,0.195c-1.823,2.115-3.599,3.794-4.718,3.794c-0.56,0-0.876-0.389-0.292-1.387
        l8.561-14.811h-2.53l-3.721,6.421c-0.437-0.706-1.264-1.314-2.31-1.314c-1.363,0-3.26,1.07-4.33,2.918l-2.475,4.272
        c-0.053-0.031-0.108-0.067-0.158-0.089l-0.171,0.195c-1.823,2.115-3.599,3.794-4.718,3.794c-0.56,0-0.876-0.389-0.292-1.387
        l3.648-6.396c1.095-1.921,0.049-3.308-1.362-3.308c-1.095,0-2.238,0.584-3.503,1.897l0.949-1.654h-2.53l-4.043,6.994
        c-0.082-0.054-0.164-0.102-0.24-0.135l-0.171,0.195c-1.823,2.115-3.599,3.794-4.718,3.794c-0.56,0-0.876-0.389-0.292-1.387
        l4.086-7.151h-1.435c0.097-1.07-0.997-2.554-2.651-2.554c-1.363,0-3.26,1.07-4.33,2.918l-2.446,4.221l-0.137,0.157
        c-1.823,2.115-3.599,3.794-4.718,3.794c-0.56,0-0.876-0.389-0.292-1.387l2.529-4.426c0.876-1.533,0.462-2.432-0.365-3.429
        l-1.411-1.703c-0.365-0.462-0.365-0.972,0.146-1.459l-1.313-1.435c-1.435,1.289-1.557,2.724-0.657,3.891l0.219,0.292
        c-1.119,1.581-2.627,3.721-4.281,5.667c0.049,0.072,0.109,0.143,0.172,0.215c-2.084,2.396-3.855,3.947-5.844,4.796l3.21-5.497
        h-2.529l-0.267,0.438c-1.338,2.359-2.87,4.037-4.84,4.037c-1.727,0-2.042-1.727-0.535-4.305l0.706-1.24
        c0.462,0.073,0.924,0.122,1.435,0.122c8.999,0,13.352-12.039,5.424-12.039c-1.387,0-3.04,0.973-4.183,2.967l-3.94,6.786
        c-1.484-0.778-2.262-2.189-2.262-3.599c0-1.167,0.536-2.335,1.629-3.186l-0.827-1.484c-1.799,1.289-2.602,3.016-2.602,4.718
        c0,2.019,1.143,3.964,3.186,5.035l-0.754,1.313c-1.775,3.064-1.459,6.47,2.116,6.47c1.07,0,1.97-0.316,2.748-0.803l-0.657,1.143
        c-3.429,1.046-5.545,2.432-5.545,4.329c0,2.432,3.721,2.943,5.545-0.17l1.946-3.332c2.626-0.827,5.205-2.626,7.978-5.837
        c-0.039-0.078-0.095-0.159-0.157-0.238c1.123-1.32,2.077-2.593,3.981-5.185l0.34,0.413c0.317,0.413,0.438,0.924,0.146,1.435
        l-2.675,4.644c-1.07,1.873-0.317,3.599,1.727,3.599c1.272,0,2.66-0.83,4.023-2.025c-0.029,1.164,0.766,2.025,2.208,2.025
        c1.021,0,2.286-0.657,3.502-1.654c0.122,0.973,0.9,1.654,2.189,1.654c1.211,0,2.529-0.753,3.829-1.857l-0.932,1.614h2.554
        l3.867-6.737c3.867-4.84,5.594-4.208,4.5-2.335l-3.283,5.716c-1.07,1.873-0.317,3.599,1.727,3.599c1.344,0,2.818-0.926,4.256-2.231
        c-0.135,1.268,0.671,2.231,2.197,2.231c1.021,0,2.286-0.657,3.502-1.654c0.122,0.973,0.9,1.654,2.189,1.654
        c2.092,0,4.5-2.237,6.591-4.67C235.685,258.293,235.248,257.903,234.907,257.758z M182.913,248.321
        c0.754-1.289,1.581-1.848,2.287-1.848c4.013,0,1.192,8.172-5.424,8.172h-0.511L182.913,248.321z M177.538,267.389
        c-0.535,0.948-1.386,0.803-1.386,0.122c0-0.657,0.584-1.411,2.53-2.165L177.538,267.389z M204.01,258.196
        c-1.533,2.408-3.04,3.551-4.086,3.551c-0.56,0-0.875-0.389-0.292-1.387l3.527-6.154c1.362-2.36,4.061-1.751,2.821,0.535
        L204.01,258.196z M228.486,258.05c-1.533,2.505-3.089,3.697-4.159,3.697c-0.56,0-0.875-0.389-0.292-1.387l3.527-6.154
        c1.362-2.36,4.061-1.751,2.821,0.535h0.024L228.486,258.05z"/>
    <path fill="#FFFFFF" d="M150.406,281.766l-0.17,0.195c-1.824,2.115-3.599,3.793-4.718,3.793c-0.56,0-0.875-0.389-0.292-1.387
        l3.649-6.396c1.094-1.921,0.048-3.308-1.363-3.308c-1.094,0-2.237,0.584-3.502,1.897l0.948-1.653h-2.53l-4.076,7.052
        c-0.11-0.079-0.221-0.15-0.323-0.194l-0.17,0.195c-1.143,1.24-2.554,1.848-3.819,1.873l2.384-4.11
        c1.532-2.652,0.121-5.156-2.262-5.156c-1.945,0-3.453,0.778-4.913,3.308l-1.24,2.164l-1.084,1.855
        c-0.078-0.051-0.156-0.097-0.229-0.129l-0.17,0.195c-2.091,2.407-3.867,3.963-5.861,4.816l6.932-11.869h-2.529l-4.475,7.783
        c-1.945,1.799-3.453,2.796-3.94,2.578c-0.632-0.267,0-1.216,0.316-1.751l4.937-8.61h-2.53l-4.035,6.983
        c-0.075-0.048-0.151-0.095-0.221-0.125l-0.17,0.195c-1.824,2.115-3.599,3.793-4.718,3.793c-0.559,0-0.875-0.389-0.292-1.387
        l3.648-6.396c1.094-1.921,0.049-3.308-1.362-3.308c-1.094,0-2.237,0.584-3.502,1.897l0.948-1.653h-2.53l-4.043,6.993
        c-0.082-0.054-0.164-0.102-0.24-0.135l-0.17,0.195c-1.824,2.115-3.599,3.793-4.718,3.793c-0.559,0-0.875-0.389-0.292-1.387
        l4.086-7.15h-1.435c0.097-1.07-0.997-2.554-2.651-2.554c-1.362,0-3.259,1.07-4.329,2.919l-2.613,4.51
        c-0.173-0.157-0.372-0.278-0.554-0.327l-0.17,0.195c-1.824,2.115-4.062,3.793-6.567,3.793c-1.727,0-2.772-1.727-1.264-4.305
        l0.706-1.24c0.462,0.073,0.924,0.123,1.435,0.123c2.7,0,5.764-1.387,7.759-4.865c0.705-1.24,1.021-2.407,1.021-3.405
        c0-2.286-1.484-3.769-3.356-3.769c-1.387,0-3.04,0.973-4.184,2.967l-3.94,6.786c-1.484-0.778-2.262-2.189-2.262-3.599
        c0-1.167,0.535-2.335,1.629-3.186l-0.827-1.484c-1.8,1.29-2.602,3.015-2.602,4.718c0,2.018,1.143,3.964,3.186,5.035l-0.754,1.314
        c-1.775,3.064-0.73,6.469,2.846,6.469c2.828,0,4.904-1.26,6.648-2.916c-0.551,1.589,0.249,2.916,2.04,2.916
        c1.022,0,2.286-0.657,3.502-1.653c0.122,0.973,0.9,1.653,2.189,1.653c1.211,0,2.529-0.753,3.829-1.857l-0.933,1.614h2.554
        l3.867-6.737c3.867-4.84,5.594-4.208,4.5-2.336l-3.283,5.714c-1.07,1.873-0.316,3.599,1.727,3.599c1.361,0,2.856-0.95,4.311-2.283
        c-0.303,1.391,0.339,2.283,1.599,2.283c1.216,0,2.602-1.022,3.745-2.043l-1.387,2.384c-3.429,1.021-5.569,2.432-5.569,4.329
        c0,2.432,3.721,2.943,5.545-0.17l1.945-3.332c2.115-0.666,4.2-1.977,6.378-4.132c-0.349,3.533,4.357,4.338,7.193,0.751h0.56
        c0.924,0,2.174-0.349,3.303-0.97l-1.7,2.941h2.554l3.867-6.737c3.867-4.84,5.594-4.208,4.5-2.336l-3.283,5.716
        c-1.07,1.873-0.317,3.599,1.727,3.599c2.091,0,4.499-2.237,6.591-4.67C151.184,282.302,150.747,281.912,150.406,281.766z
         M87.458,272.33c0.754-1.289,1.581-1.848,2.286-1.848c0.948,0,1.387,0.632,1.387,1.557c0,2.36-2.87,6.615-6.81,6.615H83.81
        L87.458,272.33z M96.365,282.204c-1.532,2.408-3.04,3.551-4.086,3.551c-0.559,0-0.875-0.389-0.292-1.387l3.527-6.154
        c1.362-2.359,4.062-1.751,2.821,0.536L96.365,282.204z M115.606,291.397c-0.536,0.949-1.387,0.803-1.387,0.123
        c0-0.657,0.608-1.41,2.554-2.165L115.606,291.397z M132.63,281.937h-0.122c-0.827,0-1.484,0.681-1.484,1.509
        c0,0.316,0.097,0.608,0.243,0.85l-0.024,0.049c-1.192,2.043-4.086,1.653-2.578-0.973l1.921-3.332l1.216-2.067
        c1.776-3.016,4.208-1.824,2.676,0.803L132.63,281.937z"/>
    <path fill="#FFFFFF" d="M209.032,282.643c-0.146-0.389-0.584-0.778-0.948-0.876l-0.171,0.195c-0.924,1.094-2.043,2.067-3.04,2.748
        c0.803-2.408,0.632-6.104,2.189-9.339l-1.897-1.022c-1.045,1.435-3.332,4.743-5.618,7.418c0.004,0.007,0.01,0.012,0.014,0.017
        c-0.01-0.005-0.021-0.013-0.031-0.017l-0.17,0.195c-1.824,2.115-3.599,3.793-4.718,3.793c-0.56,0-1.094-0.56-1.094-1.703v-1.046
        c1.775,0.219,3.648-0.949,4.84-3.016l0.681-1.167c2.359-4.038-1.484-5.375-4.062-3.015l3.599-6.251h-2.53l-7.213,12.515
        c-0.153-0.13-0.317-0.243-0.464-0.306l-0.17,0.195c-1.824,2.115-4.159,3.793-5.934,3.793c-1.557,0-2.481-0.973-1.314-3.016
        l2.602-4.524c1.459-2.505,4.037-2.091,2.53,0.536l-0.365,0.632h2.067l0.365-0.632c1.362-2.335,0.049-4.086-2.019-4.086
        c-2.042,0-3.673,1.07-4.742,2.919l-2.489,4.271c-0.053-0.031-0.107-0.067-0.157-0.089l-0.171,0.195
        c-1.823,2.115-3.599,3.793-4.718,3.793c-0.56,0-0.876-0.389-0.292-1.387l5.399-9.461h-2.53l-4.499,7.856
        c-1.922,1.751-3.405,2.724-3.891,2.505c-0.632-0.267,0-1.216,0.316-1.751l4.937-8.61h-2.53l-4.912,8.499
        c-0.548,0.498-1.107,0.942-1.634,1.302c0.802-2.408,0.632-6.104,2.189-9.339l-1.897-1.022c-1.046,1.435-6.883,9.17-9.169,11.845
        c0.219,0.316,0.584,0.632,0.949,0.876c1.435-1.654,6.25-7.856,7.151-9.047c-0.997,2.626-0.462,7.345-2.87,7.345
        c-0.851,0-1.192-0.925-1.192-0.925l-1.581,0.827c0,0,0.462,2.043,2.772,2.043c0.243,0,0.462-0.024,0.706-0.049
        c0.024,0,0.049-0.024,0.073-0.024c1.284-0.17,2.562-0.762,3.755-1.587c-0.009,1.028,0.613,1.659,1.673,1.659
        c1.386,0,2.942-1.264,4.158-2.432c-0.243,1.363,0.56,2.432,2.165,2.432c1.571,0,3.321-1.262,4.98-2.921
        c0.023,1.68,1.317,2.921,3.431,2.921c2.053,0,4.092-1.147,5.853-2.689l-1.41,2.446h2.554l2.894-5.035v2.018
        c0,2.164,0.413,3.259,2.456,3.259c2.092,0,4.5-2.237,6.592-4.67c-0.004-0.007-0.011-0.015-0.015-0.023
        c0.011,0.008,0.021,0.015,0.031,0.023c1.435-1.653,2.7-3.429,3.599-4.621c-0.997,2.626-0.462,7.345-2.87,7.345
        c-0.851,0-1.192-0.925-1.192-0.925l-1.581,0.827c0,0,0.462,2.043,2.772,2.043c0.243,0,0.462-0.024,0.706-0.049
        c0.024,0,0.048-0.024,0.073-0.024C204.582,286.898,207.136,284.855,209.032,282.643z M192.234,280.648l0.73-1.264
        c2.919-4.062,4.913-2.943,4.013-1.411l-1.216,2.091C195.007,281.377,192.794,282.302,192.234,280.648z"/>
    <path fill="#FFFFFF" d="M208.934,284.369c-0.826,0-1.459,0.656-1.459,1.484s0.632,1.459,1.459,1.459s1.484-0.632,1.484-1.459
        C210.418,285.025,209.761,284.369,208.934,284.369z"/>
    <polygon fill="#FFFFFF" points="209.056,283.372 211.61,283.372 219.538,269.557 217.009,269.557  "/>
</g>
<g>
    <path fill="#FFFFFF" d="M47.167,245.632c0,0.195-0.038,0.391-0.113,0.586c-0.075,0.196-0.188,0.373-0.338,0.531
        c-0.151,0.158-0.335,0.285-0.553,0.383c-0.218,0.098-0.463,0.147-0.734,0.147c-0.301,0-0.59-0.056-0.868-0.169
        c-0.278-0.113-0.515-0.275-0.71-0.486c-0.166-0.195-0.293-0.429-0.383-0.7c-0.091-0.271-0.135-0.556-0.135-0.857
        c0-0.571,0.101-1.098,0.305-1.579c0.203-0.482,0.492-0.91,0.868-1.286c0.165-0.165,0.353-0.319,0.564-0.463
        c0.211-0.142,0.41-0.263,0.598-0.361c0.187-0.097,0.349-0.176,0.485-0.237c0.135-0.06,0.218-0.097,0.248-0.113l0.902,1.331
        c-0.166,0.06-0.349,0.139-0.553,0.237c-0.203,0.098-0.395,0.218-0.575,0.361c-0.181,0.143-0.331,0.312-0.451,0.508
        c-0.12,0.195-0.188,0.421-0.203,0.677c0.436,0,0.82,0.128,1.15,0.383C47.002,244.782,47.167,245.151,47.167,245.632z
         M52.413,245.632c0,0.195-0.038,0.391-0.113,0.586c-0.075,0.195-0.188,0.372-0.338,0.53c-0.151,0.158-0.335,0.286-0.553,0.383
        c-0.219,0.098-0.463,0.147-0.734,0.147c-0.301,0-0.59-0.056-0.868-0.169s-0.515-0.274-0.71-0.485
        c-0.165-0.195-0.293-0.429-0.383-0.7s-0.135-0.556-0.135-0.857c0-0.571,0.101-1.098,0.305-1.579
        c0.203-0.482,0.492-0.91,0.868-1.286c0.165-0.165,0.353-0.319,0.564-0.462c0.21-0.143,0.409-0.263,0.598-0.361
        c0.188-0.097,0.349-0.177,0.486-0.237c0.135-0.06,0.218-0.097,0.248-0.113l0.902,1.331c-0.166,0.06-0.349,0.139-0.553,0.237
        c-0.203,0.098-0.395,0.218-0.576,0.361c-0.181,0.143-0.331,0.312-0.451,0.508c-0.121,0.195-0.188,0.421-0.203,0.677
        c0.436,0,0.82,0.128,1.15,0.383C52.248,244.782,52.413,245.151,52.413,245.632z"/>
</g>
<g>
    <path fill="#FFFFFF" d="M229.251,284.941c0-0.196,0.038-0.392,0.112-0.587c0.075-0.196,0.189-0.372,0.339-0.53
        c0.151-0.158,0.335-0.286,0.552-0.383c0.219-0.097,0.463-0.147,0.734-0.147c0.301,0,0.591,0.057,0.869,0.169
        c0.279,0.113,0.515,0.275,0.71,0.486c0.166,0.195,0.293,0.429,0.383,0.699c0.09,0.271,0.135,0.556,0.135,0.858
        c0,0.57-0.101,1.097-0.305,1.579s-0.492,0.91-0.869,1.286c-0.165,0.165-0.353,0.319-0.564,0.462
        c-0.209,0.143-0.409,0.263-0.598,0.361c-0.187,0.097-0.349,0.177-0.485,0.237s-0.217,0.097-0.248,0.113l-0.902-1.331
        c0.165-0.06,0.349-0.139,0.552-0.237s0.395-0.218,0.576-0.361c0.18-0.143,0.331-0.313,0.451-0.508
        c0.121-0.195,0.188-0.421,0.203-0.676c-0.436,0-0.82-0.128-1.15-0.384C229.417,285.79,229.251,285.421,229.251,284.941z
         M224.005,284.941c0-0.196,0.038-0.392,0.113-0.587c0.075-0.196,0.187-0.372,0.338-0.53c0.151-0.158,0.335-0.286,0.553-0.383
        c0.218-0.097,0.462-0.147,0.734-0.147c0.301,0,0.59,0.057,0.868,0.169c0.278,0.113,0.515,0.275,0.71,0.486
        c0.165,0.195,0.293,0.429,0.383,0.699c0.091,0.271,0.135,0.556,0.135,0.858c0,0.57-0.101,1.097-0.304,1.579
        c-0.203,0.482-0.492,0.91-0.868,1.286c-0.165,0.165-0.353,0.319-0.564,0.462c-0.211,0.143-0.409,0.263-0.598,0.361
        c-0.187,0.097-0.349,0.177-0.486,0.237c-0.136,0.059-0.218,0.097-0.248,0.113l-0.903-1.331c0.166-0.06,0.35-0.139,0.553-0.237
        c0.203-0.097,0.395-0.218,0.575-0.361c0.181-0.143,0.331-0.313,0.451-0.508c0.121-0.195,0.188-0.421,0.203-0.676
        c-0.436,0-0.82-0.128-1.151-0.384C224.171,285.79,224.005,285.421,224.005,284.941z"/>
</g>
</svg>
